<?xml version="1.0" encoding="utf-8"?>
<!-- Generator: Adobe Illustrator 16.0.0, SVG Export Plug-In . SVG Version: 6.00 Build 0)  -->
<!DOCTYPE svg PUBLIC "-//W3C//DTD SVG 1.1//EN" "http://www.w3.org/Graphics/SVG/1.1/DTD/svg11.dtd">
<svg version="1.1" id="Layer_1" xmlns="http://www.w3.org/2000/svg" xmlns:xlink="http://www.w3.org/1999/xlink" x="0px" y="0px"
	 width="163.875px" height="45.5px" viewBox="342.57 273.015 163.875 45.5" enable-background="new 342.57 273.015 163.875 45.5"
	 xml:space="preserve">
<g>
	<g>
		<g>
			<g>
				<path fill="#2C3C62" d="M400.948,295.704c-0.59,1.187-1.405,2.094-2.446,2.725c-1.041,0.631-2.247,0.946-3.62,0.946
					c-1.019,0-1.958-0.195-2.819-0.587s-1.632-0.972-2.316-1.742c-0.577-0.64-1.016-1.369-1.313-2.185
					c-0.298-0.817-0.447-1.692-0.447-2.623c0-0.944,0.18-1.841,0.541-2.688c0.36-0.848,0.888-1.62,1.584-2.315
					c0.658-0.646,1.39-1.135,2.194-1.467c0.804-0.333,1.669-0.499,2.595-0.499c1.391,0,2.613,0.329,3.666,0.988
					c1.053,0.659,1.846,1.59,2.381,2.795h-2.311c-0.435-0.602-0.969-1.056-1.603-1.36s-1.351-0.457-2.152-0.457
					c-0.64,0-1.249,0.121-1.826,0.363c-0.578,0.242-1.09,0.593-1.538,1.053c-0.465,0.478-0.829,1.034-1.09,1.668
					c-0.26,0.634-0.392,1.28-0.392,1.938c0,0.708,0.118,1.377,0.354,2.008c0.236,0.63,0.574,1.176,1.016,1.636
					c0.466,0.484,1.003,0.86,1.612,1.127c0.608,0.267,1.229,0.401,1.864,0.401c0.776,0,1.477-0.147,2.101-0.443
					c0.624-0.295,1.138-0.722,1.542-1.281L400.948,295.704L400.948,295.704z"/>
				<path fill="#2C3C62" d="M409.362,299.105h-6.411v-13.567h1.966v11.694h4.445V299.105z"/>
				<path fill="#2C3C62" d="M412.912,299.105h-1.966v-13.567h1.966V299.105z"/>
				<path fill="#2C3C62" d="M417.226,299.105h-1.948v-13.567h3.149c0.889,0,1.564,0.043,2.027,0.131
					c0.463,0.087,0.868,0.232,1.216,0.438c0.565,0.329,1.016,0.799,1.352,1.411c0.335,0.612,0.503,1.276,0.503,1.989
					c0,1.261-0.426,2.267-1.277,3.015c-0.851,0.749-2.003,1.123-3.456,1.123h-1.566L417.226,299.105L417.226,299.105z
					 M417.226,291.837h1.426c1.012,0,1.747-0.177,2.203-0.531c0.457-0.354,0.686-0.917,0.686-1.687c0-0.771-0.232-1.342-0.695-1.715
					c-0.462-0.373-1.173-0.559-2.129-0.559h-1.491L417.226,291.837L417.226,291.837z"/>
				<path fill="#2C3C62" d="M427.038,299.105h-1.947v-13.567h3.149c0.889,0,1.563,0.043,2.026,0.131
					c0.463,0.087,0.868,0.232,1.217,0.438c0.564,0.329,1.016,0.799,1.351,1.411c0.335,0.612,0.503,1.276,0.503,1.989
					c0,1.261-0.426,2.267-1.276,3.015c-0.852,0.749-2.004,1.123-3.457,1.123h-1.565V299.105L427.038,299.105z M427.038,291.837
					h1.426c1.013,0,1.747-0.177,2.203-0.531c0.456-0.354,0.686-0.917,0.686-1.687c0-0.771-0.232-1.342-0.694-1.715
					c-0.463-0.373-1.173-0.559-2.13-0.559h-1.49V291.837L427.038,291.837z"/>
				<path fill="#2C3C62" d="M436.868,299.105h-1.966v-13.567h1.966V299.105z"/>
				<path fill="#2C3C62" d="M441.201,299.105h-1.967v-13.567h2.022l6.662,10.269l-0.093-10.269h1.938v13.567h-1.883l-6.812-10.576
					L441.201,299.105z"/>
				<path fill="#2C3C62" d="M456.954,292.257h8.417c-0.094,2.119-0.781,3.834-2.064,5.147c-1.283,1.315-2.909,1.971-4.877,1.971
					c-1.021,0-1.963-0.196-2.826-0.587c-0.862-0.392-1.637-0.973-2.322-1.743c-0.579-0.64-1.018-1.369-1.316-2.185
					c-0.299-0.817-0.448-1.691-0.448-2.623c0-0.951,0.181-1.852,0.541-2.703c0.362-0.851,0.891-1.618,1.589-2.301
					c0.661-0.659,1.398-1.151,2.215-1.477c0.815-0.327,1.723-0.489,2.72-0.489c1.376,0,2.583,0.322,3.62,0.964
					s1.821,1.558,2.351,2.744h-2.423c-0.449-0.578-0.985-1.013-1.609-1.305s-1.32-0.438-2.088-0.438
					c-0.642,0-1.254,0.12-1.833,0.363c-0.58,0.242-1.095,0.593-1.545,1.053c-0.468,0.478-0.833,1.034-1.095,1.668
					c-0.262,0.634-0.394,1.279-0.394,1.938c0,0.708,0.118,1.377,0.356,2.008c0.236,0.63,0.576,1.176,1.02,1.636
					c0.467,0.484,1.007,0.859,1.617,1.127c0.612,0.267,1.235,0.4,1.871,0.4c1.035,0,1.948-0.274,2.741-0.824
					c0.791-0.55,1.443-1.362,1.954-2.437h-6.171V292.257L456.954,292.257z"/>
				<path fill="#2C3C62" d="M470.895,299.105h-2.655v-13.567h3.373c0.856,0,1.533,0.047,2.027,0.14
					c0.493,0.093,0.893,0.242,1.197,0.447c0.559,0.379,0.998,0.879,1.319,1.5c0.319,0.621,0.479,1.286,0.479,1.994
					c0,1.298-0.429,2.335-1.286,3.112c-0.857,0.776-2.013,1.165-3.466,1.165h-0.988V299.105L470.895,299.105z M470.895,291.604
					h0.699c0.739,0,1.307-0.16,1.7-0.479c0.395-0.32,0.592-0.778,0.592-1.374c0-0.616-0.191-1.073-0.573-1.374
					c-0.382-0.302-0.961-0.453-1.737-0.453h-0.681V291.604L470.895,291.604z"/>
				<path fill="#2C3C62" d="M479.244,296.263l-1.054,2.842h-2.747l5.264-13.567h2.292l5.189,13.567h-2.841l-1.072-2.842H479.244z
					 M483.4,293.747l-1.604-4.37l-1.64,4.37H483.4z"/>
				<path fill="#2C3C62" d="M494.739,285.538v2.385h-2.553v11.181h-2.646v-11.181h-2.554v-2.385H494.739z"/>
				<path fill="#2C3C62" d="M498.643,293.589v5.516h-2.655v-13.567h2.655v5.498h4.361v-5.498h2.656v13.567h-2.656v-5.516H498.643z"
					/>
			</g>
		</g>
		<g>
			<g>
				<path fill="#2C3C62" d="M463.515,311.466v-9.438h1.848v9.438H463.515z"/>
				<path fill="#2C3C62" d="M471.143,311.466h-1.815v-9.438h1.75l3.902,6.028v-6.028h1.81v9.438h-1.712l-3.935-6.211V311.466z"/>
				<path fill="#2C3C62" d="M483.969,311.466h-3.209v-9.438h3.156c0.856,0,1.541,0.086,2.056,0.259s0.981,0.463,1.4,0.868
					c0.444,0.433,0.781,0.956,1.011,1.569c0.229,0.614,0.344,1.303,0.344,2.067c0,0.856-0.16,1.622-0.48,2.299
					c-0.319,0.676-0.783,1.232-1.394,1.669c-0.346,0.255-0.732,0.437-1.16,0.545C485.266,311.411,484.691,311.466,483.969,311.466z
					 M483.852,309.845c1.024,0,1.778-0.25,2.263-0.753c0.484-0.5,0.726-1.285,0.726-2.352c0-0.981-0.265-1.744-0.794-2.288
					c-0.529-0.546-1.27-0.818-2.221-0.818h-1.206v6.211H483.852L483.852,309.845z"/>
				<path fill="#2C3C62" d="M492.258,311.466v-9.438h1.848v9.438H492.258z"/>
				<path fill="#2C3C62" d="M499.438,309.489l-0.732,1.978h-1.912l3.662-9.438h1.595l3.61,9.438h-1.978l-0.745-1.978H499.438z
					 M502.328,307.739l-1.114-3.04l-1.141,3.04H502.328z"/>
			</g>
		</g>
		<rect x="387.987" y="306.094" fill="#2C3C62" width="73.125" height="1.305"/>
	</g>
	<path fill="#2C3C62" d="M354.779,308.742c-6.296-9.919-3.037-23.309,7.267-29.848c0.05-0.032,0.101-0.064,0.151-0.096l0.512-0.391
		c-4.278-0.104-8.612,1.255-12.189,4.168c-7.968,6.489-9.168,18.209-2.68,26.178c3.608,4.43,8.833,6.764,14.131,6.851
		C359.084,313.952,356.608,311.624,354.779,308.742z"/>
	<path fill="#2C3C62" d="M372.209,281.276c-0.145,0.341-0.216,0.544-0.219,0.552l-0.239,0.698l-0.737-0.041
		c-0.08-0.004-0.168-0.005-0.266-0.005c-0.781,0-2.04,0.118-2.987,0.22l0.284,0.447l-0.866,0.551l-0.836,0.531l-0.167,0.107
		l0.002,0.004c-8.126,5.159-10.599,15.881-5.511,23.899c1.829,2.88,4.424,5.086,7.442,6.432c2.093-0.691,4.098-1.765,5.908-3.239
		c7.969-6.488,9.169-18.208,2.679-26.176C375.388,283.65,373.867,282.324,372.209,281.276z"/>
	<g>
		<path fill="#2C3C62" d="M359.844,308.76c-5.386-8.486-2.785-19.787,5.811-25.244c0.059-0.039,0.122-0.072,0.184-0.109
			l-2.602-4.097c-0.224,0.133-0.448,0.266-0.67,0.407c-9.865,6.261-12.984,19.023-6.967,28.505
			c4.534,7.139,12.956,10.38,21.052,8.869C370.12,317.603,363.563,314.62,359.844,308.76z"/>
		<path fill="#2C3C62" d="M365.125,278.873c1.034-1.126,2.043-3.502,2.043-3.502c2.719,0.365,8.075-1.132,8.422-1.232
			c0.396-0.105,0.641-0.154,0.641-0.154s-0.116,0.09-0.471,0.435c-3.376,3.246-4.694,7.093-4.694,7.093
			c-1.279-0.071-2.935,0.056-3.965,0.257c-1.005,0.196-2.896,0.988-2.896,0.988l-0.874-2.275
			C363.332,280.482,364.091,279.999,365.125,278.873z"/>
	</g>
</g>
</svg>
