<?xml version="1.0" encoding="utf-8"?>
<!-- Generator: Adobe Illustrator 22.0.1, SVG Export Plug-In . SVG Version: 6.00 Build 0)  -->
<svg version="1.1" id="Layer_2_1_" xmlns="http://www.w3.org/2000/svg" xmlns:xlink="http://www.w3.org/1999/xlink" x="0px" y="0px"
	 viewBox="0 0 201.4 59.9" style="enable-background:new 0 0 201.4 59.9;" xml:space="preserve">
<style type="text/css">
	.st0{clip-path:url(#SVGID_2_);fill:url(#SVGID_3_);}
	.st1{fill:#352F8E;}
</style>
<g>
	<g>
		<defs>
			<path id="SVGID_1_" d="M34.3,9.6c-10.4,1.3-16.1,9.8-16.7,25.3V35h7.3v-0.1c0.3-7.8,2-13,5.1-15.7c2.1-1.9,4.9-2.7,8.3-2.4
				c2.8,0.2,5.2,1.7,6.6,4.1c1.4,2.5,1.5,5.5,0.3,8.2c-3.2,6.5-10.8,7.5-17.8,7.6h-0.1H15.9c-0.4,0-0.8,0-1.3,0.1
				c-4.6,0.4-9.5,1.5-11.9,5.7C0.5,46.3,1,51.7,3.8,55c2.1,2.5,5.2,3.8,8.4,3.8c1.4,0,2.8-0.2,4.1-0.7c2.8-1,7.5-4.1,8.4-12.7v-0.1
				h-7.3v0.1c-0.3,2-1.4,6.7-5.6,6.2c-1.2-0.1-2.4-1-2.9-2.2S8.5,47,9.1,46c1-1.4,3.3-2.2,7.2-2.3h0.1h0.1c0.4,0,0.8,0,1.1,0l0,0
				l10.2,0.1c4.8-0.1,9.8-0.5,14.6-2.7c3.9-1.8,7.1-4.7,9-8.2C53.5,29.1,54,25,52.9,21s-3.5-7.2-7.1-9.2C43.2,10.3,39.2,9,34.3,9.6"
				/>
		</defs>
		<clipPath id="SVGID_2_">
			<use xlink:href="#SVGID_1_"  style="overflow:visible;"/>
		</clipPath>
		
			<linearGradient id="SVGID_3_" gradientUnits="userSpaceOnUse" x1="-629.5914" y1="16.5875" x2="-627.6504" y2="16.5875" gradientTransform="matrix(26.848 0 0 26.848 16904.6172 -411.2421)">
			<stop  offset="0" style="stop-color:#72B4E3"/>
			<stop  offset="0.3144" style="stop-color:#7DABDB"/>
			<stop  offset="0.9462" style="stop-color:#9591C7"/>
			<stop  offset="1" style="stop-color:#978FC5"/>
		</linearGradient>
		<rect x="0.5" y="9.4" class="st0" width="53.5" height="49.4"/>
	</g>
</g>
<path class="st1" d="M144.3,36.8c-0.8,0.8-1.9,1.3-3,1.3c-2,0-3.7-1.6-3.9-3.5V11.7h-7.8v4c-1.3-1.4-2.9-2.5-4.7-3.3
	c-1.8-0.7-3.8-1.1-5.9-1.1c-3.2,0-6.1,0.7-8.6,2.1s-4.5,3.4-6,5.9c-1.4,2.5-2.1,5.5-2.1,8.9s0.7,6.4,2.1,8.9c1.4,2.6,3.4,4.5,6,6
	c2.5,1.4,5.4,2.1,8.6,2.1c2.3,0,4.3-0.4,6.2-1.2c1.9-0.8,3.5-2,4.7-3.5l1-1.8c1.8,3.9,5.7,6.6,10.2,6.6c2.6,0,5.1-0.9,7-2.5
	C146.5,41.3,145.1,39.2,144.3,36.8 M127,35.8c-1.9,1.9-4.2,2.9-7.1,2.9s-5.2-0.9-7-2.9c-1.8-1.9-2.8-4.4-2.8-7.5s0.9-5.6,2.8-7.5
	c1.8-1.9,4.2-2.9,7-2.9c2.9,0,5.2,1,7.1,2.9c1.9,1.9,2.8,4.4,2.8,7.5C129.7,31.4,128.8,33.9,127,35.8"/>
<path class="st1" d="M196,15c2.5,2.4,3.8,6.1,3.8,10.9v19H192v-18c0-2.9-0.7-5.1-2-6.5c-1.4-1.5-3.3-2.2-5.8-2.2
	c-2.8,0-5.1,0.9-6.8,2.6s-2.5,4.2-2.5,7.4v16.7h-7.8V1.3h7.8v14.3c1.3-1.4,2.9-2.4,4.7-3.1c1.9-0.7,4-1.1,6.3-1.1
	C190.1,11.4,193.5,12.6,196,15"/>
<path class="st1" d="M164.7,36.2c-1.3,1.1-3,1.8-4.8,1.8c-3.9,0-6.7-3.2-6.8-7V18.2h8.9V12h-8.9V1.3h-7.8V25v2.7v3.2
	c0,8,6.5,14.5,14.5,14.5c0,0,0,0,0.1,0c0,0,0,0,0.1,0c1.6,0,3.2-0.3,4.7-0.8V36.2z"/>
<path class="st1" d="M92,13.5c2.5,1.4,4.5,3.4,6,6c1.4,2.6,2.2,5.5,2.2,8.9s-0.7,6.3-2.2,8.9c-1.4,2.6-3.4,4.6-6,6
	c-2.5,1.4-5.4,2.1-8.6,2.1c-4.5,0-8-1.5-10.6-4.5V57H65V11.7h7.4V16c1.3-1.6,2.9-2.7,4.7-3.5c1.9-0.8,4-1.2,6.2-1.2
	C86.5,11.3,89.4,12.1,92,13.5 M89.5,35.8c1.8-1.9,2.8-4.4,2.8-7.5s-0.9-5.6-2.8-7.5c-1.8-1.9-4.2-2.9-7-2.9c-1.9,0-3.5,0.4-5,1.3
	C76,20,74.8,21.3,74,22.8c-0.9,1.6-1.3,3.4-1.3,5.5s0.4,3.9,1.3,5.5s2,2.8,3.5,3.6s3.2,1.3,5,1.3C85.3,38.6,87.6,37.7,89.5,35.8"/>
</svg>
